# xmcd
#
# Track frame offsets:
#	225
#	9624
#	22025
#	30308
#	49100
#	52324
#	66231
#	69406
#	85320
#	93808
#	105948
#	112751
#	133864
#	138518
#	150935
#	162329
#	168809
#	189125
#
# Disc length: 2740 seconds
# Revision: 0
# Processed by: cddbd v1.5.2PL0 Copyright (c) Steve Scherf et al.
# Submitted via: dBpowerAMP V12.0
#
DISCID=dd0ab112
DTITLE=Kent DuChaine and Leadbessie - Too Many Snakes in the Road
DYEAR=2012
DGENRE=Blues
TTITLE0=House The Brits Built Story
TTITLE1=Seventh Son
TTITLE2=Passion Story
TTITLE3=Fever
TTITLE4=Fishin' Story
TTITLE5=Fishin' Blues
TTITLE6=Summertime Story
TTITLE7=Summertime
TTITLE8=Train Story
TTITLE9=Rock Island Line
TTITLE10=Hobo Story
TTITLE11=I'll Be True To You
TTITLE12=Christmas Story
TTITLE13=Boogieman
TTITLE14=The Finger Story
TTITLE15=Cajun Queen
TTITLE16=When a Man Loves a Woman
TTITLE17=You Don;t Want Me
EXTD=
EXTT0=
EXTT1=
EXTT2=
EXTT3=
EXTT4=
EXTT5=
EXTT6=
EXTT7=
EXTT8=
EXTT9=
EXTT10=
EXTT11=
EXTT12=
EXTT13=
EXTT14=
EXTT15=
EXTT16=
EXTT17=
PLAYORDER=
